<svg xmlns="http://www.w3.org/2000/svg" width="18" height="24" shape-rendering="crispEdges">
  <!-- double cactus cluster -->
  <rect x="3" y="4" width="2" height="16" fill="#707070"/>
  <rect x="3" y="4" width="2" height="1" fill="#9a9a9a"/>
  <rect x="0" y="9" width="2" height="5" fill="#707070"/>
  <rect x="2" y="13" width="1" height="1" fill="#707070"/>
  <rect x="6" y="8" width="2" height="6" fill="#707070"/>
  <rect x="5" y="13" width="1" height="1" fill="#707070"/>
  <rect x="3" y="19" width="2" height="3" fill="#4F4E4E"/>

  <rect x="12" y="2" width="2" height="18" fill="#6a6a6a"/>
  <rect x="12" y="2" width="2" height="1" fill="#9a9a9a"/>
  <rect x="9" y="6" width="2" height="6" fill="#6a6a6a"/>
  <rect x="11" y="11" width="1" height="1" fill="#6a6a6a"/>
  <rect x="15" y="7" width="2" height="7" fill="#6a6a6a"/>
  <rect x="14" y="13" width="1" height="1" fill="#6a6a6a"/>
  <rect x="12" y="19" width="2" height="3" fill="#4F4E4E"/>
  <rect x="2" y="22" width="13" height="1" fill="#4F4E4E"/>
</svg>
